<svg width="189" height="42" viewBox="0 0 189 42" fill="none" xmlns="http://www.w3.org/2000/svg">
<path fill-rule="evenodd" clip-rule="evenodd" d="M17.9435 37C26.7801 37 33.9435 29.8366 33.9435 21C33.9435 19.258 33.6651 17.581 33.1504 16.011H33.1501H33.1385H33.1268H33.1151H33.1034H33.0916H33.0798H33.068H33.0561H33.0443H33.0324H33.0204H33.0085H32.9965H32.9845H32.9724H32.9603H32.9482H32.9361H32.924H32.9118H32.8996H32.8874H32.8751H32.8628H32.8505H32.8382H32.8258H32.8135H32.8011H32.7886H32.7762H32.7637H32.7512H32.7387H32.7261H32.7136H32.701H32.6884H32.6757H32.6631H32.6504H32.6377H32.625H32.6123H32.5995H32.5867H32.5739H32.5611H32.5483H32.5354H32.5225H32.5096H32.4967H32.4838H32.4708H32.4578H32.4448H32.4318H32.4188H32.4057H32.3927H32.3796H32.3665H32.3534H32.3402H32.3271H32.3139H32.3008H32.2876H32.2743H32.2611H32.2479H32.2346H32.2213H32.2081H32.1948H32.1814H32.1681H32.1548H32.1414H32.128H32.1147H32.1013H32.0879H32.0744H32.061H32.0476H32.0341H32.0206H32.0072H31.9937H31.9802H31.9667H31.9531H31.9396H31.9261H31.9125H31.8989H31.8854H31.8718H31.8582H31.8446H31.831H31.8174H31.8038H31.7901H31.7765H31.7628H31.7492H31.7355H31.7219H31.7082H31.6945H31.6808H31.6671H31.6534H31.6397H31.626H31.6123H31.5986H31.5848H31.5711H31.5574H31.5436H31.5299H31.5161H31.5024H31.4886H31.4749H31.4611H31.4473H31.4336H31.4198H31.406H31.3923H31.3785H31.3647H31.3509H31.3372H31.3234H31.3096H31.2958H31.2821H31.2683H31.2545H31.2407H31.2269H31.2132H31.1994H31.1856H31.1718H31.1581H31.1443H31.1305H31.1168H31.103H31.0892H31.0755H31.0617H31.048H31.0342H31.0205H31.0068H30.993H30.9793H30.9656H30.9518H30.9381H30.9244H30.9107H30.897H30.8833H30.8696H30.8559H30.8423H30.8286H30.8149H30.8013H30.7876H30.774H30.7604H30.7467H30.7331H30.7195H30.7059H30.6923H30.6788H30.6652H30.6516H30.6381H30.6245H30.611H30.5975H30.584H30.5705H30.557H30.5435H30.53H30.5166H30.5031H30.4897H30.4763H30.4629H30.4495H30.4361H30.4227H30.4094H30.396H30.3827H30.3694H30.3561H30.3428H30.3295H30.3163H30.303H30.2898H30.2766H30.2634H30.2502H30.2371H30.2239H30.2108H30.1977H30.1846H30.1715H30.1584H30.1454H30.1324H30.1194H30.1064H30.0934H30.0804H30.0675H30.0546H30.0417H30.0288H30.0159H30.0031H29.9903H29.9775H29.9647H29.952H29.9392H29.9265H29.9138H29.9011H29.8885H29.8758H29.8632H29.8507H29.8381H29.8255H29.813H29.8005H29.7881H29.7756H29.7632H29.7508H29.7384H29.7261H29.7137H29.7014H29.6892H29.6769H29.6647H29.6525H29.6403H29.6282H29.616H29.6039H29.5919H29.5798H29.5678H29.5558H29.5439H29.5319H29.52H29.5082H29.4963H29.4845H29.4727H29.4609H29.4492H29.4375H29.4258H29.4142H29.4026H29.391H29.3794H29.3679H29.3564H29.345H29.3335H29.3221H29.3108H29.2994H29.2881H29.2769H29.2656H29.2544H29.2433H29.2321H29.221H29.21H29.1989H29.1879H29.1769H29.166H29.1551H29.1443H29.1334H29.1226H29.1119H29.1012H29.0905H29.0798H29.0692H29.0586H29.0481H29.0376H29.0271H29.02L22.8058 30.7111C22.5598 31.293 21.9951 31.6763 21.3635 31.69C20.7319 31.7036 20.1512 31.3452 19.8802 30.7745L15.5032 21.5553L12.7113 26.493C12.4296 26.9912 11.9037 27.3015 11.3314 27.3072C10.7591 27.3129 10.2271 27.0131 9.93555 26.5206L7.76429 22.8529H7.75848H7.74705H7.73556H7.72402H7.71241H7.70076H7.68904H7.67727H7.66545H7.65356H7.64163H7.62964H7.61759H7.60549H7.59333H7.58112H7.56886H7.55655H7.54418H7.53176H7.51928H7.50675H7.49418H7.48154H7.46886H7.45613H7.44334H7.43051H7.41762H7.40469H7.3917H7.37866H7.36558H7.35244H7.33926H7.32603H7.31274H7.29941H7.28604H7.27261H7.25914H7.24562H7.23205H7.21844H7.20478H7.19107H7.17732H7.16352H7.14968H7.13579H7.12185H7.10788H7.09385H7.07979H7.06567H7.05152H7.03732H7.02308H7.0088H6.99447H6.9801H6.96569H6.95124H6.93674H6.92221H6.90763H6.89301H6.87835H6.86365H6.84891H6.83414H6.81932H6.80446H6.78956H6.77463H6.75965H6.74464H6.72959H6.7145H6.69938H6.68421H6.66902H6.65378H6.63851H6.6232H6.60785H6.59247H6.57705H6.5616H6.54611H6.53059H6.51504H6.49945H6.48382H6.46817H6.45247H6.43675H6.42099H6.4052H6.38938H6.37353H6.35764H6.34172H6.32577H6.30979H6.29378H6.27774H6.26167H6.24556H6.22943H6.21327H6.19708H6.18086H6.16461H6.14833H6.13203H6.11569H6.09933H6.08294H6.06652H6.05008H6.03361H6.01711H6.00059H5.98404H5.96747H5.95087H5.93424H5.91759H5.90091H5.88421H5.86749H5.85074H5.83397H5.81718H5.80036H5.78352H5.76665H5.74977H5.73286H5.71593H5.69897H5.682H5.66501H5.64799H5.63095H5.6139H5.59682H5.57972H5.56261H5.54547H5.52832H5.51114H5.49395H5.47674H5.45951H5.44227H5.425H5.40772H5.39042H5.37311H5.35578H5.33843H5.32106H5.30369H5.28629H5.26888H5.25145H5.23401H5.21656H5.19909H5.18161H5.16411H5.1466H5.12908H5.11154H5.09399H5.07643H5.05886H5.04127H5.02367H5.00606H4.98844H4.97081H4.95317H4.93552H4.91786H4.90019H4.8825H4.86481H4.84711H4.8294H4.81169H4.79396H4.77623H4.75849H4.74074H4.72298H4.70521H4.68744H4.66967H4.65188H4.63409H4.6163H4.5985H4.58069H4.56288H4.54506H4.52724H4.50942H4.49159H4.47376H4.45592H4.43808H4.42024H4.40239H4.38455H4.3667H4.34884H4.33099H4.31314H4.29528H4.27742H4.25957H4.24171H4.22385H4.20599H4.18813H4.17028H4.15242H4.13456H4.11671H4.09886H4.08101H4.06316H4.04531H4.02747H4.00963H3.99179H3.97396H3.95613H3.9383H3.92048H3.90266H3.88485H3.86704H3.84924H3.83144H3.81365H3.79586H3.77808H3.76031H3.74254H3.72478H3.70703H3.68929H3.67155H3.65382H3.6361H3.61839H3.60069H3.58299H3.56531H3.54763H3.52997H3.51231H3.49467H3.47703H3.45941H3.44179H3.42419H3.4066H3.38903H3.37146H3.35391H3.33637H3.31884H3.30132H3.28382H3.26633H3.24886H3.2314H3.21396H3.19652H3.17911H3.16171H3.14432H3.12695H3.1096H3.09226H3.07494H3.05764H3.04035H3.02308H3.00583H2.98859H2.97138H2.95418H2.937H2.91984H2.90269H2.88557H2.86847H2.85138H2.83432H2.81728H2.80026H2.78325H2.76627H2.74931H2.73237H2.71546H2.69856H2.68169H2.66484H2.64802H2.63121H2.61443H2.59768H2.58094H2.56424H2.54755H2.53089H2.51426H2.49765H2.48107H2.46451H2.44798H2.43147H2.41499H2.39854H2.38211H2.36571H2.34934H2.333H2.31668H2.30039H2.28414H2.26791H2.2517H2.23553H2.21939H2.20328H2.18719H2.17114H2.15512H2.13913H2.12317H2.10724H2.09134H2.07548H2.05964H2.04964C2.96801 30.8166 9.73365 37 17.9435 37ZM2 19.6458C2.68746 11.443 9.56306 5 17.9435 5C23.7845 5 28.8944 8.12985 31.6877 12.8039H31.6808H31.6671H31.6534H31.6397H31.626H31.6123H31.5986H31.5848H31.5711H31.5574H31.5436H31.5299H31.5161H31.5024H31.4886H31.4749H31.4611H31.4473H31.4336H31.4198H31.406H31.3923H31.3785H31.3647H31.3509H31.3372H31.3234H31.3096H31.2958H31.2821H31.2683H31.2545H31.2407H31.2269H31.2132H31.1994H31.1856H31.1718H31.1581H31.1443H31.1305H31.1168H31.103H31.0892H31.0755H31.0617H31.048H31.0342H31.0205H31.0068H30.993H30.9793H30.9656H30.9518H30.9381H30.9244H30.9107H30.897H30.8833H30.8696H30.8559H30.8423H30.8286H30.8149H30.8013H30.7876H30.774H30.7604H30.7467H30.7331H30.7195H30.7059H30.6923H30.6788H30.6652H30.6516H30.6381H30.6245H30.611H30.5975H30.584H30.5705H30.557H30.5435H30.53H30.5166H30.5031H30.4897H30.4763H30.4629H30.4495H30.4361H30.4227H30.4094H30.396H30.3827H30.3694H30.3561H30.3428H30.3295H30.3163H30.303H30.2898H30.2766H30.2634H30.2502H30.2371H30.2239H30.2108H30.1977H30.1846H30.1715H30.1584H30.1454H30.1324H30.1194H30.1064H30.0934H30.0804H30.0675H30.0546H30.0417H30.0288H30.0159H30.0031H29.9903H29.9775H29.9647H29.952H29.9392H29.9265H29.9138H29.9011H29.8885H29.8758H29.8632H29.8507H29.8381H29.8255H29.813H29.8005H29.7881H29.7756H29.7632H29.7508H29.7384H29.7261H29.7137H29.7014H29.6892H29.6769H29.6647H29.6525H29.6403H29.6282H29.616H29.6039H29.5919H29.5798H29.5678H29.5558H29.5439H29.5319H29.52H29.5082H29.4963H29.4845H29.4727H29.4609H29.4492H29.4375H29.4258H29.4142H29.4026H29.391H29.3794H29.3679H29.3564H29.345H29.3335H29.3221H29.3108H29.2994H29.2881H29.2769H29.2656H29.2544H29.2433H29.2321H29.221H29.21H29.1989H29.1879H29.1769H29.166H29.1551H29.1443H29.1334H29.1226H29.1119H29.1012H29.0905H29.0798H29.0692H29.0586H29.0481H29.0376H29.0271H29.0167H29.0063H28.9959H28.9856H28.9754H28.9651H28.9549H28.9448H28.9346H28.9246H28.9145H28.9045H28.8946H28.8846H28.8747H28.8649H28.8551H28.8453H28.8356H28.8259H28.8163H28.8067H28.7972H28.7877H28.7782H28.7688H28.7594H28.7501H28.7408H28.7315H28.7223H28.7131H28.704H28.6949H28.6859H28.6769H28.668H28.6591H28.6502H28.6414H28.6327H28.624H28.6153H28.6067H28.5981H28.5896H28.5811H28.5727H28.5643H28.556H28.5477H28.5394H28.5312H28.5231H28.515H28.5069H28.499H28.491H28.4831H28.4753H28.4675H28.4597H28.452H28.4444H28.4368H28.4292H28.4217H28.4143H28.4069H28.3996H28.3923H28.3851H28.3779H28.3707H28.3637H28.3567H28.3497H28.3428H28.3359H28.3291H28.3224H28.3157H28.309H28.3024H28.2959H28.2894H28.283H28.2766H28.2703H28.2641H28.2579H28.2517H28.2456H28.2396H28.2336H28.2277H28.2219H28.2161H28.2103H28.2046H28.199H28.1935H28.188H28.1825H28.1771H28.1718H28.1665H28.1613H28.1562H28.1511H28.1461H28.1411H28.1362H28.1313H28.1266H28.1218H28.1172H28.1126H28.108H28.1036H28.0992H28.0948H28.0905H28.0863H28.0822H28.0781H28.074H28.0701H28.0662H28.0623H28.0586H28.0549H28.0512H28.0476H28.0441H28.0407H28.0373H28.034H28.0307H28.0276H28.0245H28.0214H28.0184H28.0155H28.0127H28.0099H28.0072H28.0046H28.002H27.9995H27.9971H27.9947H27.9924H27.9902H27.988H27.9859H27.9839H27.982H27.9801H27.9783H27.9766H27.9749H27.9733H27.9718H27.9704H27.969H27.9677H27.9665H27.9653H27.9642H27.9632H27.9623H27.9614H27.9606H27.9599H27.9593H27.9587H27.9582H27.9578H27.9575H27.9572H27.957H27.9569L27.9569 14.4075V12.8039C27.3125 12.8039 26.7307 13.1896 26.4799 13.7831L21.2439 26.1692L17.0758 17.3901C16.8191 16.8494 16.2826 16.4967 15.6844 16.4753C15.0863 16.454 14.526 16.7676 14.2314 17.2886L11.2836 22.5021L10.0584 20.4325C9.7697 19.9448 9.24512 19.6458 8.67847 19.6458V21.2494L8.67842 19.6458H8.67828H8.67804H8.67771H8.67728H8.67676H8.67614H8.67543H8.67463H8.67374H8.67275H8.67166H8.67049H8.66922H8.66786H8.66641H8.66487H8.66324H8.66151H8.6597H8.65779H8.65579H8.65371H8.65153H8.64927H8.64691H8.64447H8.64194H8.63932H8.63661H8.63381H8.63093H8.62796H8.6249H8.62176H8.61852H8.61521H8.6118H8.60831H8.60473H8.60107H8.59733H8.5935H8.58958H8.58558H8.5815H8.57733H8.57308H8.56874H8.56432H8.55982H8.55524H8.55057H8.54583H8.541H8.53609H8.53109H8.52602H8.52087H8.51563H8.51032H8.50492H8.49945H8.49389H8.48826H8.48255H8.47676H8.47089H8.46494H8.45892H8.45281H8.44663H8.44038H8.43404H8.42763H8.42114H8.41458H8.40794H8.40123H8.39444H8.38757H8.38063H8.37361H8.36652H8.35936H8.35212H8.34481H8.33743H8.32997H8.32244H8.31484H8.30716H8.29942H8.2916H8.28371H8.27575H8.26771H8.25961H8.25143H8.24319H8.23488H8.22649H8.21804H8.20952H8.20092H8.19226H8.18354H8.17474H8.16587H8.15694H8.14794H8.13887H8.12974H8.12054H8.11127H8.10194H8.09254H8.08307H8.07354H8.06395H8.05428H8.04456H8.03477H8.02492H8.015H8.00502H7.99497H7.98486H7.97469H7.96446H7.95417H7.94381H7.93339H7.92291H7.91237H7.90176H7.8911H7.88037H7.86959H7.85874H7.84784H7.83688H7.82585H7.81477H7.80363H7.79243H7.78117H7.76986H7.75848H7.74705H7.73556H7.72402H7.71241H7.70076H7.68904H7.67727H7.66545H7.65356H7.64163H7.62964H7.61759H7.60549H7.59333H7.58112H7.56886H7.55655H7.54418H7.53176H7.51928H7.50675H7.49418H7.48154H7.46886H7.45613H7.44334H7.43051H7.41762H7.40469H7.3917H7.37866H7.36558H7.35244H7.33926H7.32603H7.31274H7.29941H7.28604H7.27261H7.25914H7.24562H7.23205H7.21844H7.20478H7.19107H7.17732H7.16352H7.14968H7.13579H7.12185H7.10788H7.09385H7.07979H7.06567H7.05152H7.03732H7.02308H7.0088H6.99447H6.9801H6.96569H6.95124H6.93674H6.92221H6.90763H6.89301H6.87835H6.86365H6.84891H6.83414H6.81932H6.80446H6.78956H6.77463H6.75965H6.74464H6.72959H6.7145H6.69938H6.68421H6.66902H6.65378H6.63851H6.6232H6.60785H6.59247H6.57705H6.5616H6.54611H6.53059H6.51504H6.49945H6.48382H6.46817H6.45247H6.43675H6.42099H6.4052H6.38938H6.37353H6.35764H6.34172H6.32577H6.30979H6.29378H6.27774H6.26167H6.24556H6.22943H6.21327H6.19708H6.18086H6.16461H6.14833H6.13203H6.11569H6.09933H6.08294H6.06652H6.05008H6.03361H6.01711H6.00059H5.98404H5.96747H5.95087H5.93424H5.91759H5.90091H5.88421H5.86749H5.85074H5.83397H5.81718H5.80036H5.78352H5.76665H5.74977H5.73286H5.71593H5.69897H5.682H5.66501H5.64799H5.63095H5.6139H5.59682H5.57972H5.56261H5.54547H5.52832H5.51114H5.49395H5.47674H5.45951H5.44227H5.425H5.40772H5.39042H5.37311H5.35578H5.33843H5.32106H5.30369H5.28629H5.26888H5.25145H5.23401H5.21656H5.19909H5.18161H5.16411H5.1466H5.12908H5.11154H5.09399H5.07643H5.05886H5.04127H5.02367H5.00606H4.98844H4.97081H4.95317H4.93552H4.91786H4.90019H4.8825H4.86481H4.84711H4.8294H4.81169H4.79396H4.77623H4.75849H4.74074H4.72298H4.70521H4.68744H4.66967H4.65188H4.63409H4.6163H4.5985H4.58069H4.56288H4.54506H4.52724H4.50942H4.49159H4.47376H4.45592H4.43808H4.42024H4.40239H4.38455H4.3667H4.34884H4.33099H4.31314H4.29528H4.27742H4.25957H4.24171H4.22385H4.20599H4.18813H4.17028H4.15242H4.13456H4.11671H4.09886H4.08101H4.06316H4.04531H4.02747H4.00963H3.99179H3.97396H3.95613H3.9383H3.92048H3.90266H3.88485H3.86704H3.84924H3.83144H3.81365H3.79586H3.77808H3.76031H3.74254H3.72478H3.70703H3.68929H3.67155H3.65382H3.6361H3.61839H3.60069H3.58299H3.56531H3.54763H3.52997H3.51231H3.49467H3.47703H3.45941H3.44179H3.42419H3.4066H3.38903H3.37146H3.35391H3.33637H3.31884H3.30132H3.28382H3.26633H3.24886H3.2314H3.21396H3.19652H3.17911H3.16171H3.14432H3.12695H3.1096H3.09226H3.07494H3.05764H3.04035H3.02308H3.00583H2.98859H2.97138H2.95418H2.937H2.91984H2.90269H2.88557H2.86847H2.85138H2.83432H2.81728H2.80026H2.78325H2.76627H2.74931H2.73237H2.71546H2.69856H2.68169H2.66484H2.64802H2.63121H2.61443H2.59768H2.58094H2.56424H2.54755H2.53089H2.51426H2.49765H2.48107H2.46451H2.44798H2.43147H2.41499H2.39854H2.38211H2.36571H2.34934H2.333H2.31668H2.30039H2.28414H2.26791H2.2517H2.23553H2.21939H2.20328H2.18719H2.17114H2.15512H2.13913H2.12317H2.10724H2.09134H2.07548H2.05964H2.04384H2.02807H2.01234H2Z" fill="#92D050"/>
<path d="M46.716 16.004L43.44 26H40.262L37 16.004H40.038L41.396 21.072C41.4427 21.2587 41.4987 21.5013 41.564 21.8C41.6293 22.0987 41.69 22.3973 41.746 22.696C41.8113 22.9947 41.8487 23.2373 41.858 23.424C41.8767 23.2373 41.9093 22.9993 41.956 22.71C42.012 22.4113 42.068 22.1173 42.124 21.828C42.1893 21.5293 42.25 21.2867 42.306 21.1L43.692 16.004H46.716ZM57.014 20.988C57.014 21.7627 56.9207 22.4673 56.734 23.102C56.5473 23.7273 56.258 24.2687 55.866 24.726C55.474 25.1833 54.97 25.5333 54.354 25.776C53.7473 26.0187 53.0147 26.14 52.156 26.14C51.316 26.14 50.588 26.0187 49.972 25.776C49.3653 25.5333 48.8613 25.1833 48.46 24.726C48.068 24.2687 47.774 23.7273 47.578 23.102C47.3913 22.4673 47.298 21.758 47.298 20.974C47.298 19.938 47.4707 19.0373 47.816 18.272C48.1613 17.4973 48.6933 16.9 49.412 16.48C50.1307 16.06 51.05 15.85 52.17 15.85C53.3087 15.85 54.2327 16.0647 54.942 16.494C55.6607 16.914 56.1833 17.5113 56.51 18.286C56.846 19.0513 57.014 19.952 57.014 20.988ZM50.14 20.988C50.14 21.5853 50.2053 22.1033 50.336 22.542C50.476 22.9713 50.6953 23.3027 50.994 23.536C51.2927 23.7693 51.68 23.886 52.156 23.886C52.6507 23.886 53.0427 23.7693 53.332 23.536C53.6307 23.3027 53.8453 22.9713 53.976 22.542C54.1067 22.1033 54.172 21.5853 54.172 20.988C54.172 20.0827 54.0227 19.3687 53.724 18.846C53.4253 18.3233 52.9073 18.062 52.17 18.062C51.6847 18.062 51.2927 18.1833 50.994 18.426C50.6953 18.6593 50.476 18.9953 50.336 19.434C50.2053 19.8633 50.14 20.3813 50.14 20.988ZM58.8182 26V16.004H61.5202V23.816H65.3702V26H58.8182ZM71.1032 26H68.4012V18.216H65.9652V16.004H73.5392V18.216H71.1032V26ZM80.1123 26L79.6223 24.124H76.3743L75.8703 26H72.9023L76.1643 15.962H79.7623L83.0663 26H80.1123ZM78.6283 20.274C78.5817 20.0967 78.5163 19.8447 78.4323 19.518C78.3483 19.182 78.2643 18.8367 78.1803 18.482C78.0963 18.1273 78.031 17.838 77.9843 17.614C77.947 17.838 77.8863 18.118 77.8023 18.454C77.7277 18.79 77.6483 19.1213 77.5643 19.448C77.4897 19.7747 77.4243 20.05 77.3683 20.274L76.9343 21.912H79.0623L78.6283 20.274ZM87.8831 20.148H92.1951V25.538C91.6818 25.7153 91.0891 25.86 90.4171 25.972C89.7544 26.084 89.0591 26.14 88.3311 26.14C87.3698 26.14 86.5251 25.9533 85.7971 25.58C85.0784 25.2067 84.5138 24.6373 84.1031 23.872C83.7018 23.1067 83.5011 22.1407 83.5011 20.974C83.5011 19.9287 83.7018 19.0233 84.1031 18.258C84.5044 17.4927 85.0924 16.9047 85.8671 16.494C86.6511 16.074 87.6124 15.864 88.7511 15.864C89.3764 15.864 89.9691 15.9247 90.5291 16.046C91.0891 16.158 91.5744 16.3073 91.9851 16.494L91.1311 18.608C90.7764 18.4307 90.4031 18.3 90.0111 18.216C89.6191 18.1227 89.2038 18.076 88.7651 18.076C88.1678 18.076 87.6871 18.2113 87.3231 18.482C86.9591 18.7527 86.6931 19.112 86.5251 19.56C86.3664 20.008 86.2871 20.5027 86.2871 21.044C86.2871 21.66 86.3758 22.1827 86.5531 22.612C86.7304 23.0413 86.9871 23.368 87.3231 23.592C87.6591 23.8067 88.0698 23.914 88.5551 23.914C88.6671 23.914 88.7931 23.9093 88.9331 23.9C89.0731 23.8907 89.2084 23.8767 89.3391 23.858C89.4791 23.8393 89.5864 23.8207 89.6611 23.802V22.234H87.8831V20.148ZM100.164 26H94.2284V16.004H100.164V18.174H96.9304V19.742H99.9264V21.912H96.9304V23.802H100.164V26ZM109.091 15.878C109.725 15.878 110.267 15.9713 110.715 16.158C111.172 16.3447 111.522 16.6153 111.765 16.97C112.017 17.3247 112.143 17.754 112.143 18.258C112.143 18.8367 111.975 19.336 111.639 19.756C111.303 20.176 110.869 20.5493 110.337 20.876L111.695 22.164C111.853 21.9213 111.993 21.6507 112.115 21.352C112.245 21.044 112.343 20.722 112.409 20.386H115.181C115.031 21.0673 114.807 21.7207 114.509 22.346C114.21 22.9713 113.888 23.4893 113.543 23.9L115.727 26H112.269L111.597 25.3C111.41 25.4213 111.223 25.5333 111.037 25.636C110.859 25.7387 110.659 25.8273 110.435 25.902C110.211 25.9767 109.949 26.0327 109.651 26.07C109.361 26.1167 109.007 26.14 108.587 26.14C107.812 26.14 107.154 26.0093 106.613 25.748C106.071 25.4867 105.661 25.1367 105.381 24.698C105.101 24.25 104.961 23.76 104.961 23.228C104.961 22.8267 105.031 22.458 105.171 22.122C105.32 21.786 105.53 21.4827 105.801 21.212C106.081 20.932 106.421 20.6893 106.823 20.484C106.636 20.2693 106.473 20.05 106.333 19.826C106.202 19.5927 106.099 19.35 106.025 19.098C105.959 18.8367 105.927 18.5567 105.927 18.258C105.927 17.7913 106.043 17.3807 106.277 17.026C106.519 16.6713 106.874 16.3913 107.341 16.186C107.817 15.9807 108.4 15.878 109.091 15.878ZM108.279 21.954C108.148 22.0473 108.041 22.1547 107.957 22.276C107.873 22.388 107.812 22.5093 107.775 22.64C107.737 22.7613 107.719 22.892 107.719 23.032C107.719 23.3213 107.821 23.5593 108.027 23.746C108.232 23.9233 108.503 24.012 108.839 24.012C109.1 24.012 109.329 23.9793 109.525 23.914C109.721 23.8393 109.87 23.76 109.973 23.676L108.279 21.954ZM109.049 17.628C108.862 17.628 108.694 17.684 108.545 17.796C108.405 17.908 108.335 18.09 108.335 18.342C108.335 18.5473 108.395 18.7387 108.517 18.916C108.638 19.0933 108.778 19.2567 108.937 19.406C109.198 19.2567 109.394 19.0793 109.525 18.874C109.665 18.6687 109.735 18.4633 109.735 18.258C109.735 18.034 109.669 17.8753 109.539 17.782C109.408 17.6793 109.245 17.628 109.049 17.628ZM133.627 16.004L131.163 26H127.971L127.019 21.646C127 21.562 126.972 21.422 126.935 21.226C126.898 21.03 126.851 20.806 126.795 20.554C126.748 20.302 126.706 20.0547 126.669 19.812C126.632 19.5693 126.604 19.364 126.585 19.196C126.566 19.364 126.534 19.5693 126.487 19.812C126.45 20.0547 126.408 20.302 126.361 20.554C126.314 20.806 126.268 21.03 126.221 21.226C126.184 21.422 126.156 21.562 126.137 21.646L125.171 26H121.979L119.501 16.004H122.105L123.197 21.016C123.225 21.1373 123.262 21.3147 123.309 21.548C123.356 21.772 123.402 22.0147 123.449 22.276C123.505 22.5373 123.556 22.794 123.603 23.046C123.65 23.2887 123.682 23.494 123.701 23.662C123.738 23.382 123.785 23.06 123.841 22.696C123.906 22.332 123.976 21.968 124.051 21.604C124.126 21.2307 124.196 20.8853 124.261 20.568C124.336 20.2507 124.396 19.9893 124.443 19.784L125.325 16.004H127.831L128.685 19.784C128.732 19.98 128.788 20.2413 128.853 20.568C128.928 20.8853 129.002 21.2307 129.077 21.604C129.152 21.9773 129.222 22.346 129.287 22.71C129.352 23.074 129.399 23.3913 129.427 23.662C129.455 23.4287 129.502 23.1393 129.567 22.794C129.632 22.4487 129.698 22.1127 129.763 21.786C129.828 21.45 129.88 21.198 129.917 21.03L131.023 16.004H133.627ZM140.487 26L139.997 24.124H136.749L136.245 26H133.277L136.539 15.962H140.137L143.441 26H140.487ZM139.003 20.274C138.957 20.0967 138.891 19.8447 138.807 19.518C138.723 19.182 138.639 18.8367 138.555 18.482C138.471 18.1273 138.406 17.838 138.359 17.614C138.322 17.838 138.261 18.118 138.177 18.454C138.103 18.79 138.023 19.1213 137.939 19.448C137.865 19.7747 137.799 20.05 137.743 20.274L137.309 21.912H139.437L139.003 20.274ZM147.939 26H145.237V18.216H142.801V16.004H150.375V18.216H147.939V26ZM156.484 26H153.782V18.216H151.346V16.004H158.92V18.216H156.484V26ZM165.493 26L165.003 24.124H161.755L161.251 26H158.283L161.545 15.962H165.143L168.447 26H165.493ZM164.009 20.274C163.963 20.0967 163.897 19.8447 163.813 19.518C163.729 19.182 163.645 18.8367 163.561 18.482C163.477 18.1273 163.412 17.838 163.365 17.614C163.328 17.838 163.267 18.118 163.183 18.454C163.109 18.79 163.029 19.1213 162.945 19.448C162.871 19.7747 162.805 20.05 162.749 20.274L162.315 21.912H164.443L164.009 20.274ZM173.264 20.148H177.576V25.538C177.063 25.7153 176.47 25.86 175.798 25.972C175.135 26.084 174.44 26.14 173.712 26.14C172.751 26.14 171.906 25.9533 171.178 25.58C170.459 25.2067 169.895 24.6373 169.484 23.872C169.083 23.1067 168.882 22.1407 168.882 20.974C168.882 19.9287 169.083 19.0233 169.484 18.258C169.885 17.4927 170.473 16.9047 171.248 16.494C172.032 16.074 172.993 15.864 174.132 15.864C174.757 15.864 175.35 15.9247 175.91 16.046C176.47 16.158 176.955 16.3073 177.366 16.494L176.512 18.608C176.157 18.4307 175.784 18.3 175.392 18.216C175 18.1227 174.585 18.076 174.146 18.076C173.549 18.076 173.068 18.2113 172.704 18.482C172.34 18.7527 172.074 19.112 171.906 19.56C171.747 20.008 171.668 20.5027 171.668 21.044C171.668 21.66 171.757 22.1827 171.934 22.612C172.111 23.0413 172.368 23.368 172.704 23.592C173.04 23.8067 173.451 23.914 173.936 23.914C174.048 23.914 174.174 23.9093 174.314 23.9C174.454 23.8907 174.589 23.8767 174.72 23.858C174.86 23.8393 174.967 23.8207 175.042 23.802V22.234H173.264V20.148ZM185.545 26H179.609V16.004H185.545V18.174H182.311V19.742H185.307V21.912H182.311V23.802H185.545V26Z" fill="#92D050"/>
<path d="M153.475 29.43C153.782 29.43 154.033 29.4683 154.23 29.545C154.427 29.6217 154.573 29.7367 154.67 29.89C154.767 30.04 154.815 30.23 154.815 30.46C154.815 30.6433 154.78 30.7983 154.71 30.925C154.643 31.0483 154.557 31.15 154.45 31.23C154.343 31.3067 154.232 31.3683 154.115 31.415L155.115 33H154.495L153.635 31.555H153.015V33H152.475V29.43H153.475ZM153.44 29.89H153.015V31.105H153.465C153.648 31.105 153.798 31.0817 153.915 31.035C154.035 30.9883 154.122 30.9183 154.175 30.825C154.232 30.7317 154.26 30.6167 154.26 30.48C154.26 30.3367 154.23 30.2233 154.17 30.14C154.113 30.0533 154.023 29.99 153.9 29.95C153.78 29.91 153.627 29.89 153.44 29.89ZM157.914 29.845C157.737 29.845 157.579 29.8767 157.439 29.94C157.299 30 157.179 30.09 157.079 30.21C156.982 30.33 156.907 30.475 156.854 30.645C156.804 30.815 156.779 31.0067 156.779 31.22C156.779 31.5 156.821 31.7433 156.904 31.95C156.987 32.1533 157.112 32.31 157.279 32.42C157.446 32.53 157.656 32.585 157.909 32.585C158.062 32.585 158.209 32.5717 158.349 32.545C158.492 32.515 158.637 32.4767 158.784 32.43V32.895C158.644 32.9483 158.501 32.9867 158.354 33.01C158.207 33.0367 158.037 33.05 157.844 33.05C157.481 33.05 157.177 32.975 156.934 32.825C156.694 32.675 156.514 32.4617 156.394 32.185C156.274 31.9083 156.214 31.585 156.214 31.215C156.214 30.945 156.251 30.6983 156.324 30.475C156.401 30.2483 156.511 30.0533 156.654 29.89C156.797 29.7267 156.974 29.6017 157.184 29.515C157.397 29.425 157.642 29.38 157.919 29.38C158.099 29.38 158.276 29.4 158.449 29.44C158.622 29.4767 158.779 29.53 158.919 29.6L158.719 30.05C158.602 29.9967 158.476 29.95 158.339 29.91C158.206 29.8667 158.064 29.845 157.914 29.845ZM163.737 33H163.212V30.63C163.212 30.5467 163.212 30.47 163.212 30.4C163.215 30.3267 163.219 30.2567 163.222 30.19C163.225 30.12 163.229 30.0533 163.232 29.99C163.189 30.0333 163.144 30.075 163.097 30.115C163.05 30.155 162.997 30.2017 162.937 30.255L162.547 30.57L162.277 30.23L163.297 29.43H163.737V33ZM165.733 31.48C165.733 31.2733 165.747 31.07 165.773 30.87C165.803 30.67 165.853 30.4817 165.923 30.305C165.997 30.125 166.097 29.9667 166.223 29.83C166.35 29.69 166.51 29.5817 166.703 29.505C166.9 29.425 167.137 29.385 167.413 29.385C167.483 29.385 167.562 29.3883 167.648 29.395C167.738 29.3983 167.812 29.4083 167.868 29.425V29.87C167.805 29.85 167.735 29.835 167.658 29.825C167.585 29.815 167.512 29.81 167.438 29.81C167.208 29.81 167.018 29.845 166.868 29.915C166.718 29.985 166.6 30.0817 166.513 30.205C166.427 30.3283 166.363 30.4717 166.323 30.635C166.283 30.795 166.258 30.97 166.248 31.16H166.278C166.328 31.08 166.39 31.0083 166.463 30.945C166.537 30.8817 166.627 30.8317 166.733 30.795C166.84 30.7583 166.963 30.74 167.103 30.74C167.31 30.74 167.49 30.7833 167.643 30.87C167.8 30.9567 167.92 31.0817 168.003 31.245C168.09 31.4083 168.133 31.6067 168.133 31.84C168.133 32.09 168.085 32.3067 167.988 32.49C167.895 32.67 167.762 32.8083 167.588 32.905C167.418 33.0017 167.213 33.05 166.973 33.05C166.8 33.05 166.638 33.0183 166.488 32.955C166.338 32.8917 166.207 32.795 166.093 32.665C165.98 32.535 165.892 32.3717 165.828 32.175C165.765 31.975 165.733 31.7433 165.733 31.48ZM166.968 32.61C167.158 32.61 167.313 32.5483 167.433 32.425C167.553 32.2983 167.613 32.1033 167.613 31.84C167.613 31.63 167.56 31.4633 167.453 31.34C167.35 31.2167 167.193 31.155 166.983 31.155C166.84 31.155 166.715 31.185 166.608 31.245C166.502 31.305 166.418 31.3817 166.358 31.475C166.298 31.5683 166.268 31.6633 166.268 31.76C166.268 31.8633 166.283 31.965 166.313 32.065C166.343 32.165 166.387 32.2567 166.443 32.34C166.503 32.4233 166.577 32.49 166.663 32.54C166.75 32.5867 166.852 32.61 166.968 32.61ZM171.725 30.955C171.725 31.1583 171.71 31.3617 171.68 31.565C171.65 31.765 171.6 31.955 171.53 32.135C171.46 32.3117 171.36 32.47 171.23 32.61C171.103 32.7467 170.941 32.855 170.745 32.935C170.551 33.0117 170.316 33.05 170.04 33.05C169.973 33.05 169.895 33.0467 169.805 33.04C169.715 33.0333 169.64 33.0217 169.58 33.005V32.56C169.643 32.58 169.713 32.595 169.79 32.605C169.87 32.615 169.946 32.62 170.02 32.62C170.25 32.62 170.438 32.5867 170.585 32.52C170.735 32.45 170.853 32.3533 170.94 32.23C171.03 32.1067 171.095 31.9633 171.135 31.8C171.175 31.6367 171.198 31.4633 171.205 31.28H171.175C171.125 31.3567 171.063 31.4267 170.99 31.49C170.916 31.5533 170.826 31.6033 170.72 31.64C170.616 31.6767 170.491 31.695 170.345 31.695C170.141 31.695 169.961 31.6517 169.805 31.565C169.651 31.4783 169.533 31.355 169.45 31.195C169.366 31.0317 169.325 30.8333 169.325 30.6C169.325 30.3467 169.371 30.13 169.465 29.95C169.561 29.7667 169.696 29.6267 169.87 29.53C170.046 29.4333 170.251 29.385 170.485 29.385C170.658 29.385 170.82 29.4167 170.97 29.48C171.12 29.5433 171.251 29.64 171.365 29.77C171.478 29.9 171.566 30.0633 171.63 30.26C171.693 30.4567 171.725 30.6883 171.725 30.955ZM170.49 29.82C170.3 29.82 170.145 29.8833 170.025 30.01C169.905 30.1367 169.845 30.33 169.845 30.59C169.845 30.8033 169.895 30.9717 169.995 31.095C170.098 31.2183 170.256 31.28 170.47 31.28C170.616 31.28 170.743 31.25 170.85 31.19C170.956 31.1267 171.04 31.05 171.1 30.96C171.16 30.8667 171.19 30.77 171.19 30.67C171.19 30.57 171.175 30.47 171.145 30.37C171.115 30.27 171.071 30.1783 171.015 30.095C170.958 30.0117 170.885 29.945 170.795 29.895C170.708 29.845 170.606 29.82 170.49 29.82ZM175.336 30.955C175.336 31.1583 175.321 31.3617 175.291 31.565C175.261 31.765 175.211 31.955 175.141 32.135C175.071 32.3117 174.971 32.47 174.841 32.61C174.714 32.7467 174.553 32.855 174.356 32.935C174.163 33.0117 173.928 33.05 173.651 33.05C173.584 33.05 173.506 33.0467 173.416 33.04C173.326 33.0333 173.251 33.0217 173.191 33.005V32.56C173.254 32.58 173.324 32.595 173.401 32.605C173.481 32.615 173.558 32.62 173.631 32.62C173.861 32.62 174.049 32.5867 174.196 32.52C174.346 32.45 174.464 32.3533 174.551 32.23C174.641 32.1067 174.706 31.9633 174.746 31.8C174.786 31.6367 174.809 31.4633 174.816 31.28H174.786C174.736 31.3567 174.674 31.4267 174.601 31.49C174.528 31.5533 174.438 31.6033 174.331 31.64C174.228 31.6767 174.103 31.695 173.956 31.695C173.753 31.695 173.573 31.6517 173.416 31.565C173.263 31.4783 173.144 31.355 173.061 31.195C172.978 31.0317 172.936 30.8333 172.936 30.6C172.936 30.3467 172.983 30.13 173.076 29.95C173.173 29.7667 173.308 29.6267 173.481 29.53C173.658 29.4333 173.863 29.385 174.096 29.385C174.269 29.385 174.431 29.4167 174.581 29.48C174.731 29.5433 174.863 29.64 174.976 29.77C175.089 29.9 175.178 30.0633 175.241 30.26C175.304 30.4567 175.336 30.6883 175.336 30.955ZM174.101 29.82C173.911 29.82 173.756 29.8833 173.636 30.01C173.516 30.1367 173.456 30.33 173.456 30.59C173.456 30.8033 173.506 30.9717 173.606 31.095C173.709 31.2183 173.868 31.28 174.081 31.28C174.228 31.28 174.354 31.25 174.461 31.19C174.568 31.1267 174.651 31.05 174.711 30.96C174.771 30.8667 174.801 30.77 174.801 30.67C174.801 30.57 174.786 30.47 174.756 30.37C174.726 30.27 174.683 30.1783 174.626 30.095C174.569 30.0117 174.496 29.945 174.406 29.895C174.319 29.845 174.218 29.82 174.101 29.82ZM176.967 33L178.392 29.9H176.517V29.43H178.962V29.81L177.542 33H176.967ZM182.699 32.21H182.204V33H181.689V32.21H180.034V31.79L181.679 29.415H182.204V31.76H182.699V32.21ZM181.689 30.79C181.689 30.71 181.689 30.6333 181.689 30.56C181.692 30.4867 181.695 30.4167 181.699 30.35C181.702 30.28 181.704 30.2167 181.704 30.16C181.707 30.1 181.71 30.0467 181.714 30H181.694C181.667 30.0667 181.634 30.135 181.594 30.205C181.557 30.275 181.519 30.3367 181.479 30.39L180.534 31.76H181.689V30.79ZM184.97 29.38C185.18 29.38 185.367 29.4133 185.53 29.48C185.693 29.5433 185.822 29.6383 185.915 29.765C186.012 29.8917 186.06 30.05 186.06 30.24C186.06 30.3833 186.03 30.5083 185.97 30.615C185.91 30.7217 185.83 30.8167 185.73 30.9C185.63 30.98 185.518 31.05 185.395 31.11C185.535 31.18 185.663 31.26 185.78 31.35C185.9 31.4367 185.995 31.5383 186.065 31.655C186.138 31.7717 186.175 31.9117 186.175 32.075C186.175 32.275 186.125 32.4483 186.025 32.595C185.928 32.7383 185.79 32.85 185.61 32.93C185.43 33.01 185.22 33.05 184.98 33.05C184.723 33.05 184.503 33.0117 184.32 32.935C184.14 32.8583 184.003 32.75 183.91 32.61C183.817 32.4667 183.77 32.2933 183.77 32.09C183.77 31.9267 183.803 31.785 183.87 31.665C183.937 31.545 184.025 31.4417 184.135 31.355C184.245 31.2683 184.365 31.195 184.495 31.135C184.382 31.0683 184.278 30.9933 184.185 30.91C184.092 30.8233 184.018 30.725 183.965 30.615C183.912 30.505 183.885 30.3783 183.885 30.235C183.885 30.0483 183.933 29.8933 184.03 29.77C184.127 29.6433 184.257 29.5467 184.42 29.48C184.587 29.4133 184.77 29.38 184.97 29.38ZM184.28 32.08C184.28 32.2433 184.337 32.3783 184.45 32.485C184.563 32.5883 184.737 32.64 184.97 32.64C185.123 32.64 185.25 32.6167 185.35 32.57C185.453 32.52 185.532 32.4533 185.585 32.37C185.638 32.2833 185.665 32.185 185.665 32.075C185.665 31.965 185.635 31.8683 185.575 31.785C185.518 31.7017 185.438 31.6283 185.335 31.565C185.235 31.4983 185.118 31.4383 184.985 31.385L184.91 31.355C184.773 31.4117 184.658 31.475 184.565 31.545C184.472 31.615 184.4 31.6933 184.35 31.78C184.303 31.8667 184.28 31.9667 184.28 32.08ZM184.965 29.795C184.802 29.795 184.665 29.835 184.555 29.915C184.448 29.995 184.395 30.1117 184.395 30.265C184.395 30.375 184.422 30.4683 184.475 30.545C184.528 30.6217 184.6 30.6883 184.69 30.745C184.78 30.7983 184.878 30.85 184.985 30.9C185.092 30.8533 185.187 30.8033 185.27 30.75C185.353 30.6933 185.42 30.6267 185.47 30.55C185.52 30.47 185.545 30.375 185.545 30.265C185.545 30.1117 185.492 29.995 185.385 29.915C185.278 29.835 185.138 29.795 184.965 29.795Z" fill="#F2F2F2"/>
</svg>
